<svg width="243.506" height="71.973" viewBox="0 0 243.506 71.973" xmlns="http://www.w3.org/2000/svg"><g id="svgGroup" stroke-linecap="round" fill-rule="evenodd" font-size="9pt" stroke="#f9d342" stroke-width="0.25mm" fill="#f9d342" style="stroke:#f9d342;stroke-width:0.25mm;fill:#f9d342"><path d="M 134.83 19.244 A 27.357 27.357 0 0 0 129.492 18.701 Q 126.514 18.701 123.95 19.58 A 15.98 15.98 0 0 0 123.012 19.935 A 13.618 13.618 0 0 0 119.483 22.046 A 11.674 11.674 0 0 0 116.48 25.83 A 10.145 10.145 0 0 0 115.936 27.137 A 11.001 11.001 0 0 0 115.381 30.664 A 9.477 9.477 0 0 0 115.712 33.166 A 10.173 10.173 0 0 0 117.383 36.548 A 24.015 24.015 0 0 0 119.179 38.697 A 29.402 29.402 0 0 0 122.412 41.65 A 68.35 68.35 0 0 0 123.176 42.246 A 75.435 75.435 0 0 0 128.931 46.24 A 144.169 144.169 0 0 1 130.858 47.474 A 123.893 123.893 0 0 1 135.45 50.61 A 40.848 40.848 0 0 1 135.544 50.678 Q 138.508 52.819 140.479 55.054 A 9.291 9.291 0 0 1 141.513 56.462 A 6.587 6.587 0 0 1 142.481 59.863 A 4.527 4.527 0 0 1 142.434 60.53 Q 142.142 62.492 140.025 62.948 A 6.916 6.916 0 0 1 138.575 63.086 Q 137.11 63.086 135.791 62.549 A 8.792 8.792 0 0 1 135.75 62.532 A 7.835 7.835 0 0 1 133.472 61.108 A 6.985 6.985 0 0 1 131.885 59.033 A 5.393 5.393 0 0 1 131.299 56.592 A 6.427 6.427 0 0 1 131.47 55.127 A 17.23 17.23 0 0 1 131.536 54.855 A 15.293 15.293 0 0 1 131.861 53.735 A 121.414 121.414 0 0 0 131.969 53.409 A 107.688 107.688 0 0 0 132.276 52.466 A 4.433 4.433 0 0 0 132.345 52.228 A 3.807 3.807 0 0 0 132.471 51.27 A 1.888 1.888 0 0 0 132.357 50.615 Q 132.206 50.202 131.854 49.845 A 3.471 3.471 0 0 0 131.25 49.365 A 4.177 4.177 0 0 0 130.524 48.998 Q 129.967 48.779 129.287 48.676 A 8.744 8.744 0 0 0 127.979 48.584 Q 126.63 48.584 125.575 48.906 A 4.827 4.827 0 0 0 123.12 50.537 Q 122.009 51.949 121.701 54.584 A 19.03 19.03 0 0 0 121.582 56.787 A 16.546 16.546 0 0 0 121.603 57.609 A 14.061 14.061 0 0 0 122.876 62.891 Q 124.17 65.674 126.465 67.676 A 15.593 15.593 0 0 0 128.228 69.004 A 18.042 18.042 0 0 0 131.934 70.825 A 18.46 18.46 0 0 0 134.397 71.524 A 21.581 21.581 0 0 0 138.867 71.973 A 18.814 18.814 0 0 0 140.593 71.895 A 15.466 15.466 0 0 0 144.336 71.094 A 14.627 14.627 0 0 0 145.172 70.77 A 12.44 12.44 0 0 0 148.633 68.604 A 10.961 10.961 0 0 0 151.416 64.746 A 11.322 11.322 0 0 0 152.049 62.841 A 13.288 13.288 0 0 0 152.393 59.766 Q 152.393 56.592 151.221 53.882 Q 150.049 51.172 148.12 48.877 A 30.899 30.899 0 0 0 143.75 44.629 Q 141.309 42.676 138.745 41.016 A 186.32 186.32 0 0 0 137.471 40.198 A 167.807 167.807 0 0 0 133.741 37.891 A 102.101 102.101 0 0 1 131.427 36.462 A 75.924 75.924 0 0 1 129.37 35.107 A 27.538 27.538 0 0 1 128.698 34.633 Q 127.986 34.115 127.393 33.608 A 14.387 14.387 0 0 1 126.27 32.544 A 6.212 6.212 0 0 1 125.917 32.136 Q 125.588 31.719 125.391 31.305 A 2.839 2.839 0 0 1 125.098 30.078 A 3.444 3.444 0 0 1 125.114 29.746 A 2.443 2.443 0 0 1 126.099 27.954 Q 126.713 27.49 127.538 27.31 A 5.287 5.287 0 0 1 128.662 27.197 A 11.794 11.794 0 0 1 128.681 27.197 A 10.197 10.197 0 0 1 133.106 28.174 A 30.218 30.218 0 0 1 133.739 28.484 A 26.859 26.859 0 0 1 136.89 30.347 A 537.708 537.708 0 0 0 138.55 31.488 A 404.089 404.089 0 0 0 140.064 32.52 A 7.869 7.869 0 0 0 140.728 32.926 Q 141.78 33.496 142.676 33.496 Q 143.253 33.496 143.945 33.254 A 6.922 6.922 0 0 0 144.702 32.935 A 9.666 9.666 0 0 0 146.826 31.519 A 12.076 12.076 0 0 0 147.311 31.071 A 10.292 10.292 0 0 0 148.487 29.712 Q 148.884 29.158 149.051 28.661 A 2.148 2.148 0 0 0 149.17 27.979 A 3.029 3.029 0 0 0 148.838 26.64 Q 148.386 25.714 147.315 24.756 A 13.876 13.876 0 0 0 146.981 24.467 Q 145.206 22.978 142.578 21.753 Q 139.698 20.41 136.231 19.556 A 31.512 31.512 0 0 0 134.83 19.244 Z M 160.157 1.05 A 3.081 3.081 0 0 0 159.228 2.12 Q 158.692 3.122 158.692 4.688 A 0.855 0.855 0 0 0 158.695 4.756 Q 158.724 5.097 158.985 6.445 A 2626.521 2626.521 0 0 0 159.134 7.217 Q 159.312 8.133 159.548 9.348 A 9201.39 9201.39 0 0 0 159.79 10.596 A 1996.433 1996.433 0 0 1 160.13 12.346 Q 160.524 14.384 161.011 16.919 Q 161.719 20.605 162.5 25.098 A 2.057 2.057 0 0 1 162.556 25.296 A 1.65 1.65 0 0 1 162.598 25.659 L 162.598 26.172 Q 162.598 27.295 162.036 27.856 Q 161.475 28.418 160.498 28.662 A 118.571 118.571 0 0 0 156.421 29.474 A 86.395 86.395 0 0 0 152.783 30.347 Q 150.434 30.968 148.73 31.554 A 28.587 28.587 0 0 0 147.315 32.08 A 4.558 4.558 0 0 0 146.661 32.434 A 3.377 3.377 0 0 0 145.923 33.081 Q 145.41 33.691 145.142 34.399 A 7.123 7.123 0 0 0 145.109 34.488 A 6.447 6.447 0 0 0 144.776 35.815 A 13.184 13.184 0 0 0 144.75 36.011 Q 144.715 36.3 144.697 36.558 A 7.237 7.237 0 0 0 144.678 37.061 A 7.972 7.972 0 0 0 144.688 37.457 Q 144.716 38.031 144.83 38.524 A 4.204 4.204 0 0 0 145.215 39.575 A 2.399 2.399 0 0 0 145.338 39.78 Q 145.651 40.245 146.122 40.438 A 1.967 1.967 0 0 0 146.875 40.576 Q 147.705 40.576 148.731 40.405 Q 149.756 40.234 151.075 39.795 A 64.983 64.983 0 0 1 152.88 39.223 A 77.249 77.249 0 0 1 156.104 38.33 A 198.963 198.963 0 0 1 158.875 37.647 A 235.789 235.789 0 0 1 161.817 36.963 Q 161.908 36.963 162.019 36.944 A 1.927 1.927 0 0 0 162.158 36.914 A 2.066 2.066 0 0 1 162.243 36.895 Q 162.386 36.865 162.5 36.865 Q 164.258 36.865 164.698 38.965 A 349.976 349.976 0 0 1 166.162 50.61 Q 166.797 56.445 167.09 62.207 A 6.778 6.778 0 0 0 167.164 62.913 Q 167.25 63.451 167.422 63.885 A 2.934 2.934 0 0 0 168.067 64.893 A 2.592 2.592 0 0 0 168.865 65.429 Q 169.278 65.611 169.798 65.696 A 6.212 6.212 0 0 0 170.801 65.772 A 21.086 21.086 0 0 0 171.75 65.751 Q 172.413 65.721 172.985 65.648 A 9.643 9.643 0 0 0 174.048 65.454 A 5.436 5.436 0 0 0 175.023 65.12 A 3.907 3.907 0 0 0 176.123 64.38 A 3.918 3.918 0 0 0 176.795 63.513 A 4.834 4.834 0 0 0 177.246 62.427 A 7.274 7.274 0 0 0 177.388 61.835 Q 177.49 61.316 177.54 60.712 A 15.048 15.048 0 0 0 177.588 59.473 A 5.416 5.416 0 0 0 177.584 59.274 Q 177.565 58.751 177.454 57.691 A 83.196 83.196 0 0 0 177.368 56.909 Q 177.149 54.98 176.783 52.075 Q 176.577 50.441 176.324 48.552 A 695.063 695.063 0 0 0 175.904 45.459 Q 175.391 41.748 174.805 37.5 A 1.1 1.1 0 0 0 174.8 37.403 Q 174.79 37.286 174.756 37.134 Q 174.707 36.914 174.707 36.768 A 2.968 2.968 0 0 1 174.723 36.454 Q 174.853 35.238 176.022 34.786 A 3.86 3.86 0 0 1 176.905 34.57 Q 181.201 34.131 185.523 33.862 A 138.132 138.132 0 0 1 194.092 33.594 Q 194.971 33.594 195.655 33.203 Q 196.338 32.813 196.802 32.202 Q 197.266 31.592 197.534 30.811 A 5.347 5.347 0 0 0 197.67 30.351 A 4.399 4.399 0 0 0 197.803 29.297 Q 197.803 28.467 197.681 27.661 A 4.907 4.907 0 0 0 197.642 27.437 A 4.246 4.246 0 0 0 197.193 26.196 Q 196.826 25.537 196.192 25.122 A 2.152 2.152 0 0 0 195.804 24.923 Q 195.515 24.809 195.162 24.755 A 4.514 4.514 0 0 0 194.483 24.707 A 32.627 32.627 0 0 0 194.09 24.709 Q 193.489 24.717 192.813 24.746 A 58.226 58.226 0 0 0 191.333 24.829 Q 189.551 24.951 187.574 25.122 Q 185.596 25.293 183.618 25.488 A 3391.082 3391.082 0 0 0 181.708 25.678 A 2725.279 2725.279 0 0 0 179.932 25.855 A 2131.046 2131.046 0 0 1 178.909 25.957 Q 177.834 26.064 176.978 26.147 A 55.791 55.791 0 0 1 176.785 26.166 Q 175.69 26.27 175.196 26.27 A 3.032 3.032 0 0 1 174.635 26.22 Q 173.15 25.941 172.901 24.072 Q 172.119 19.189 171.411 14.355 A 602.185 602.185 0 0 1 171.236 13.152 A 546.964 546.964 0 0 1 170.117 4.98 A 18.976 18.976 0 0 0 169.986 4.27 Q 169.884 3.774 169.765 3.35 A 8.822 8.822 0 0 0 169.507 2.564 A 4.997 4.997 0 0 0 169.166 1.844 A 3.712 3.712 0 0 0 168.531 1.025 A 3.241 3.241 0 0 0 167.066 0.22 A 5.771 5.771 0 0 0 166.645 0.129 Q 165.925 0 164.991 0 Q 162.727 0 161.323 0.474 A 4.416 4.416 0 0 0 160.157 1.05 Z M 18.897 66.699 Q 18.897 65.088 18.775 62.5 A 326.515 326.515 0 0 0 18.634 59.778 A 433.59 433.59 0 0 0 18.457 56.787 A 882.604 882.604 0 0 0 18.25 53.564 A 1053.74 1053.74 0 0 0 18.018 50.147 Q 17.774 46.631 17.481 43.164 A 3818.413 3818.413 0 0 1 16.987 37.265 A 3467.72 3467.72 0 0 1 16.919 36.45 A 707.314 707.314 0 0 0 16.657 33.356 A 518.63 518.63 0 0 0 16.407 30.566 Q 16.016 26.807 15.332 25.049 Q 14.861 23.836 13.97 23.46 A 2.251 2.251 0 0 0 13.086 23.291 A 3.99 3.99 0 0 0 12.416 23.343 Q 11.505 23.499 11.158 24.121 Q 10.737 24.873 10.638 25.946 A 6.939 6.939 0 0 0 10.62 26.172 A 30.499 30.499 0 0 0 10.573 27.365 Q 10.565 27.737 10.565 28.127 A 41.699 41.699 0 0 0 10.572 28.833 A 8.467 8.467 0 0 1 10.573 28.977 Q 10.573 29.909 10.365 30.749 A 6.492 6.492 0 0 1 10.132 31.494 A 3.979 3.979 0 0 1 9.049 33.047 A 5.307 5.307 0 0 1 8.399 33.545 A 4.146 4.146 0 0 1 7.364 34.018 Q 6.338 34.339 4.836 34.371 A 15.904 15.904 0 0 1 4.492 34.375 A 3.962 3.962 0 0 1 1.571 33.112 A 5.511 5.511 0 0 1 1.319 32.837 A 4.961 4.961 0 0 1 0.383 31.123 Q 0 29.948 0 28.369 Q 0 24.268 2.417 20.923 A 17.574 17.574 0 0 1 5.929 17.339 A 23.791 23.791 0 0 1 9.229 15.21 A 33.115 33.115 0 0 1 13.992 13.133 Q 16.675 12.193 19.825 11.523 A 59.064 59.064 0 0 1 27.233 10.457 A 77.181 77.181 0 0 1 33.594 10.205 Q 39.014 10.205 43.604 11.401 A 31.955 31.955 0 0 1 47.882 12.83 A 24.308 24.308 0 0 1 51.538 14.722 A 18.857 18.857 0 0 1 54.766 17.279 A 15.471 15.471 0 0 1 56.787 19.751 A 11.308 11.308 0 0 1 58.692 26.074 A 13.27 13.27 0 0 1 56.91 32.674 A 16.182 16.182 0 0 1 56.446 33.447 A 22.54 22.54 0 0 1 53.031 37.564 A 29.06 29.06 0 0 1 50.269 39.893 A 38.045 38.045 0 0 1 45.111 43.105 A 48.516 48.516 0 0 1 41.016 44.995 A 61.282 61.282 0 0 1 31.851 47.897 A 69.474 69.474 0 0 1 29.59 48.389 A 2.486 2.486 0 0 0 28.808 48.648 Q 27.881 49.158 27.881 50.488 A 22.556 22.556 0 0 0 27.903 51.445 Q 27.943 52.367 28.052 53.54 A 471.665 471.665 0 0 1 28.308 56.383 A 537.968 537.968 0 0 1 28.394 57.373 Q 28.565 59.375 28.736 61.328 A 49.862 49.862 0 0 1 28.852 62.953 Q 28.893 63.696 28.903 64.361 A 28.489 28.489 0 0 1 28.907 64.795 A 9.292 9.292 0 0 1 28.812 66.173 Q 28.559 67.85 27.637 68.701 A 4.01 4.01 0 0 1 26.179 69.542 Q 25.567 69.749 24.821 69.827 A 9.141 9.141 0 0 1 23.877 69.873 A 11.079 11.079 0 0 1 22.513 69.794 Q 21.817 69.708 21.243 69.526 A 4.657 4.657 0 0 1 20.215 69.067 A 2.828 2.828 0 0 1 19.368 68.297 Q 18.963 67.726 18.906 66.957 A 3.49 3.49 0 0 1 18.897 66.699 Z M 192.334 44.385 L 192.432 43.408 Q 192.659 41.776 193.285 40.986 A 2.323 2.323 0 0 1 193.384 40.869 A 2.174 2.174 0 0 1 194.294 40.283 Q 194.649 40.158 195.088 40.113 A 5.082 5.082 0 0 1 195.606 40.088 L 196.338 40.088 Q 198.13 40.088 198.99 38.634 A 4.109 4.109 0 0 0 199.219 38.184 Q 200.733 34.814 203.076 32.031 A 25.597 25.597 0 0 1 208.35 27.271 Q 211.28 25.293 214.624 24.194 Q 217.969 23.096 221.436 23.096 A 22.039 22.039 0 0 1 226.39 23.638 A 19.636 19.636 0 0 1 228.199 24.146 A 18.939 18.939 0 0 1 231.903 25.821 A 16.297 16.297 0 0 1 233.692 27.051 A 14.069 14.069 0 0 1 237.118 30.935 A 13.493 13.493 0 0 1 237.378 31.397 Q 238.721 33.887 238.721 36.768 A 8.91 8.91 0 0 1 238.385 39.248 A 7.935 7.935 0 0 1 237.94 40.43 Q 237.158 42.09 235.694 43.335 A 11.004 11.004 0 0 1 233.523 44.762 A 13.805 13.805 0 0 1 232.154 45.361 A 16.103 16.103 0 0 1 229.641 46.07 A 21.1 21.1 0 0 1 227.442 46.387 L 210.498 48.096 Q 209.522 48.096 208.911 48.584 Q 208.301 49.072 208.301 49.902 A 3.513 3.513 0 0 0 208.751 51.602 A 4.88 4.88 0 0 0 209.253 52.344 Q 210.205 53.516 211.792 54.419 A 13.553 13.553 0 0 0 213.849 55.363 A 17.32 17.32 0 0 0 215.454 55.859 Q 217.53 56.397 219.727 56.397 A 23.143 23.143 0 0 0 223.426 56.09 A 26.021 26.021 0 0 0 224.048 55.981 Q 226.27 55.566 228.443 54.785 A 31.511 31.511 0 0 0 232.666 52.905 A 26.606 26.606 0 0 0 236.524 50.391 A 6.306 6.306 0 0 1 237.448 49.721 Q 238.006 49.394 238.557 49.261 A 3.187 3.187 0 0 1 239.307 49.17 A 2.648 2.648 0 0 1 240.723 49.561 Q 241.154 49.826 241.654 50.295 A 11.136 11.136 0 0 1 242.139 50.781 A 24.133 24.133 0 0 1 242.556 51.443 Q 242.971 52.126 243.189 52.612 A 3.706 3.706 0 0 1 243.445 53.4 A 3.068 3.068 0 0 1 243.506 54.004 A 3.09 3.09 0 0 1 243.043 55.606 Q 242.772 56.059 242.344 56.497 A 6.572 6.572 0 0 1 242.041 56.787 A 33.777 33.777 0 0 1 236.963 60.278 A 37.764 37.764 0 0 1 231.25 62.891 Q 228.272 63.965 225.098 64.526 Q 221.924 65.088 218.799 65.088 A 27.722 27.722 0 0 1 213.394 64.576 A 24.356 24.356 0 0 1 211.377 64.087 A 22.29 22.29 0 0 1 206.968 62.307 A 19.532 19.532 0 0 1 205.2 61.23 A 18.061 18.061 0 0 1 200.635 56.763 A 16.784 16.784 0 0 1 197.998 50.879 A 14.676 14.676 0 0 0 197.796 50.29 Q 197.473 49.414 197.193 49.097 A 1.099 1.099 0 0 0 196.747 48.799 Q 196.566 48.73 196.339 48.702 A 2.759 2.759 0 0 0 195.996 48.682 A 5.957 5.957 0 0 1 194.912 48.589 Q 194.311 48.478 193.837 48.232 A 2.97 2.97 0 0 1 193.213 47.803 A 2.834 2.834 0 0 1 192.363 46.356 Q 192.245 45.891 192.237 45.338 A 5.554 5.554 0 0 1 192.237 45.264 Q 192.237 44.58 192.334 44.385 Z M 100.147 34.863 L 100.342 38.77 Q 100.509 44.738 101.835 47.959 A 9.835 9.835 0 0 0 102.32 48.975 Q 104.102 52.197 106.983 52.197 Q 108.008 52.197 108.814 52.002 A 13.15 13.15 0 0 0 109.967 51.668 A 11.491 11.491 0 0 0 110.327 51.538 A 23.95 23.95 0 0 1 111.184 51.231 A 19.653 19.653 0 0 1 111.67 51.074 A 4.297 4.297 0 0 1 112.94 50.879 A 2.424 2.424 0 0 1 114.545 51.487 A 3.497 3.497 0 0 1 114.917 51.855 Q 115.772 52.832 115.772 54.199 Q 115.772 55.522 114.789 56.845 A 7.008 7.008 0 0 1 114.722 56.934 A 9.741 9.741 0 0 1 113.243 58.462 A 12.583 12.583 0 0 1 111.963 59.399 Q 110.254 60.498 108.106 61.182 Q 105.957 61.865 103.76 61.865 A 8.507 8.507 0 0 1 97.994 59.623 A 11.85 11.85 0 0 1 97.071 58.716 Q 94.84 56.278 93.605 52.069 A 30.497 30.497 0 0 1 92.969 49.463 A 3.385 3.385 0 0 0 92.842 49.106 Q 92.691 48.753 92.5 48.601 A 0.492 0.492 0 0 0 92.188 48.486 A 1.126 1.126 0 0 0 91.451 48.763 A 1.81 1.81 0 0 0 91.162 49.072 A 42.967 42.967 0 0 1 86.811 53.829 Q 83.936 56.511 80.86 58.228 A 25.546 25.546 0 0 1 75.765 60.418 A 19.73 19.73 0 0 1 70.069 61.279 A 14.589 14.589 0 0 1 67.561 61.073 A 11.529 11.529 0 0 1 65.576 60.547 A 10.104 10.104 0 0 1 63.312 59.393 A 8.811 8.811 0 0 1 62.183 58.472 A 8.988 8.988 0 0 1 60.182 55.557 A 10.447 10.447 0 0 1 60.034 55.2 A 10.898 10.898 0 0 1 59.367 52.469 A 13.738 13.738 0 0 1 59.278 50.879 A 17.125 17.125 0 0 1 59.803 46.758 A 22.412 22.412 0 0 1 60.767 43.799 A 34.888 34.888 0 0 1 63.591 38.287 A 40.805 40.805 0 0 1 64.795 36.475 A 48.959 48.959 0 0 1 70.264 30 A 53.839 53.839 0 0 1 70.679 29.59 A 50.426 50.426 0 0 1 77.71 23.828 A 38.593 38.593 0 0 1 83.309 20.67 A 34.111 34.111 0 0 1 85.205 19.873 A 22.964 22.964 0 0 1 89.042 18.752 A 17.915 17.915 0 0 1 92.481 18.408 A 16.259 16.259 0 0 1 97.657 19.238 A 15.444 15.444 0 0 1 100.869 20.719 A 13.677 13.677 0 0 1 102.051 21.533 Q 103.955 22.998 105.103 25.049 A 9.105 9.105 0 0 1 106.249 29.43 A 10.719 10.719 0 0 1 106.25 29.59 Q 106.25 30.615 105.786 31.567 A 5.428 5.428 0 0 1 104.541 33.228 A 6.124 6.124 0 0 1 102.759 34.351 A 5.367 5.367 0 0 1 100.684 34.766 Q 100.593 34.766 100.523 34.787 A 0.394 0.394 0 0 0 100.513 34.79 Q 100.44 34.814 100.342 34.814 A 0.47 0.47 0 0 1 100.232 34.854 A 0.399 0.399 0 0 1 100.147 34.863 Z M 91.378 34.397 A 19.45 19.45 0 0 0 90.869 35.303 Q 87.872 40.679 84.875 44.354 A 32.755 32.755 0 0 1 81.397 48.047 A 24.174 24.174 0 0 1 78.812 50.086 Q 77.385 51.05 76.031 51.594 A 9.042 9.042 0 0 1 72.657 52.295 A 4.39 4.39 0 0 1 71.776 52.211 A 2.991 2.991 0 0 1 70.191 51.367 A 2.865 2.865 0 0 1 69.903 51.021 Q 69.543 50.511 69.394 49.831 A 4.902 4.902 0 0 1 69.287 48.779 A 7.046 7.046 0 0 1 69.342 47.916 Q 69.53 46.394 70.362 44.58 Q 71.436 42.236 73.194 39.844 A 37.041 37.041 0 0 1 73.873 38.949 A 41.536 41.536 0 0 1 77.222 35.181 A 48.588 48.588 0 0 1 78.077 34.346 A 42.968 42.968 0 0 1 81.861 31.128 A 30.501 30.501 0 0 1 83.773 29.797 A 24.055 24.055 0 0 1 86.524 28.272 A 14.935 14.935 0 0 1 87.317 27.927 Q 89.145 27.197 90.674 27.197 A 5.064 5.064 0 0 1 91.745 27.305 A 3.468 3.468 0 0 1 93.408 28.149 Q 94.434 29.102 95.362 30.371 Q 95.655 30.811 95.655 31.201 A 0.469 0.469 0 0 1 95.499 31.554 Q 95.322 31.721 94.945 31.816 A 3.365 3.365 0 0 1 94.58 31.885 Q 93.213 32.129 92.481 32.886 A 4.717 4.717 0 0 0 92.332 33.047 Q 91.882 33.557 91.378 34.397 Z M 48.584 27.49 A 4.057 4.057 0 0 0 48.031 25.472 Q 47.72 24.921 47.234 24.387 A 7.466 7.466 0 0 0 47.168 24.316 Q 45.866 22.925 43.739 21.822 A 18.65 18.65 0 0 0 43.36 21.631 A 21.359 21.359 0 0 0 40.516 20.495 A 28.493 28.493 0 0 0 37.818 19.775 A 30.658 30.658 0 0 0 32.117 19.104 A 34.536 34.536 0 0 0 31.201 19.092 Q 29.966 19.092 29.023 19.156 A 17.812 17.812 0 0 0 28.345 19.214 Q 27.592 19.294 27.039 19.448 A 4.165 4.165 0 0 0 26.514 19.629 A 2.794 2.794 0 0 0 26.102 19.845 Q 25.887 19.983 25.737 20.148 A 1.38 1.38 0 0 0 25.562 20.386 A 1.844 1.844 0 0 0 25.37 20.875 Q 25.293 21.19 25.293 21.582 Q 25.293 22.07 25.44 23.853 A 152.244 152.244 0 0 0 25.587 25.519 Q 25.666 26.375 25.764 27.33 A 270.809 270.809 0 0 0 25.83 27.979 Q 26.075 30.322 26.343 32.886 Q 26.612 35.449 26.905 37.5 Q 27.04 38.895 27.278 39.419 A 1.229 1.229 0 0 0 27.32 39.502 A 0.947 0.947 0 0 0 27.595 39.822 Q 27.778 39.953 28.029 39.982 A 1.271 1.271 0 0 0 28.174 39.99 A 11.922 11.922 0 0 0 29.72 39.883 Q 30.774 39.745 31.983 39.429 Q 34.131 38.867 36.402 37.915 Q 38.672 36.963 40.845 35.718 A 32.184 32.184 0 0 0 43.508 34.02 A 26.927 26.927 0 0 0 44.751 33.081 A 18.084 18.084 0 0 0 46.226 31.766 Q 46.93 31.061 47.464 30.345 A 11.043 11.043 0 0 0 47.534 30.249 A 6.669 6.669 0 0 0 48.132 29.273 Q 48.584 28.355 48.584 27.49 Z M 225.635 37.793 A 2.366 2.366 0 0 0 226.905 37.085 A 1.918 1.918 0 0 0 227.44 35.777 A 2.504 2.504 0 0 0 227.442 35.693 A 1.983 1.983 0 0 0 227.107 34.598 A 2.648 2.648 0 0 0 226.905 34.326 Q 226.401 33.731 225.554 33.243 A 7.409 7.409 0 0 0 225.44 33.179 A 7.655 7.655 0 0 0 224.303 32.671 A 9.908 9.908 0 0 0 223.291 32.373 A 10.79 10.79 0 0 0 221.214 32.091 A 12.387 12.387 0 0 0 220.703 32.08 A 14.85 14.85 0 0 0 217.386 32.467 A 17.109 17.109 0 0 0 216.602 32.666 A 18.425 18.425 0 0 0 214.014 33.593 A 15.714 15.714 0 0 0 212.793 34.204 Q 211.141 35.124 210.083 36.227 A 8.358 8.358 0 0 0 210.01 36.304 A 5.155 5.155 0 0 0 209.444 37.019 Q 209.166 37.447 209.04 37.872 A 2.463 2.463 0 0 0 208.936 38.574 A 1.304 1.304 0 0 0 209.02 39.062 Q 209.248 39.631 210.096 39.69 A 2.955 2.955 0 0 0 210.303 39.697 Q 211.133 39.697 212.989 39.502 A 254.331 254.331 0 0 0 214.942 39.288 A 339.356 339.356 0 0 0 217.09 39.038 A 158.837 158.837 0 0 0 221.631 38.428 A 244.641 244.641 0 0 0 223.27 38.178 Q 223.918 38.077 224.51 37.981 A 137.827 137.827 0 0 0 225.635 37.793 Z" vector-effect="non-scaling-stroke"/></g></svg>