<svg width="2435.062" height="719.729" viewBox="0 0 2435.062 719.729" xmlns="http://www.w3.org/2000/svg"><g id="svgGroup" stroke-linecap="round" fill-rule="evenodd" font-size="9pt" stroke="#f9d342" stroke-width="0.25mm" fill="#f9d342" style="stroke:#f9d342;stroke-width:0.25mm;fill:#f9d342"><path d="M 1348.304 192.438 A 273.568 273.568 0 0 0 1294.925 187.012 A 193.141 193.141 0 0 0 1282.092 187.433 A 164.414 164.414 0 0 0 1239.505 195.801 A 159.799 159.799 0 0 0 1230.124 199.346 A 136.183 136.183 0 0 0 1194.827 220.459 A 116.738 116.738 0 0 0 1164.798 258.301 A 101.453 101.453 0 0 0 1159.364 271.371 A 110.008 110.008 0 0 0 1153.812 306.641 A 94.767 94.767 0 0 0 1157.116 331.663 A 101.729 101.729 0 0 0 1173.831 365.479 A 240.151 240.151 0 0 0 1191.789 386.973 A 294.023 294.023 0 0 0 1224.124 416.504 A 683.525 683.525 0 0 0 1231.765 422.455 A 754.348 754.348 0 0 0 1289.31 462.403 A 1441.695 1441.695 0 0 1 1308.581 474.743 A 1238.931 1238.931 0 0 1 1354.495 506.104 A 408.115 408.115 0 0 1 1355.439 506.783 Q 1370.025 517.315 1382.205 528.076 A 256.153 256.153 0 0 1 1404.788 550.537 Q 1424.808 573.242 1424.808 598.633 Q 1424.808 624.188 1400.245 629.478 A 69.16 69.16 0 0 1 1385.745 630.86 A 73.057 73.057 0 0 1 1357.913 625.489 A 88.105 88.105 0 0 1 1357.502 625.32 A 78.348 78.348 0 0 1 1334.72 611.084 Q 1324.71 602.051 1318.851 590.332 A 53.929 53.929 0 0 1 1312.991 565.918 A 64.274 64.274 0 0 1 1314.7 551.27 A 172.31 172.31 0 0 1 1315.358 548.549 A 152.932 152.932 0 0 1 1318.606 537.354 A 1214.555 1214.555 0 0 0 1319.69 534.088 A 1076.872 1076.872 0 0 0 1322.757 524.658 Q 1324.71 518.555 1324.71 512.696 Q 1324.71 501.465 1312.503 493.653 A 41.773 41.773 0 0 0 1305.244 489.979 Q 1299.674 487.789 1292.872 486.758 A 87.438 87.438 0 0 0 1279.788 485.84 Q 1266.299 485.84 1255.752 489.064 A 48.267 48.267 0 0 0 1231.204 505.371 Q 1220.089 519.486 1217.006 545.84 A 190.304 190.304 0 0 0 1215.823 567.871 A 165.457 165.457 0 0 0 1216.025 576.088 A 140.607 140.607 0 0 0 1228.763 628.907 A 142.495 142.495 0 0 0 1264.651 676.758 A 155.934 155.934 0 0 0 1282.281 690.044 A 180.423 180.423 0 0 0 1319.339 708.252 A 184.597 184.597 0 0 0 1343.967 715.245 A 215.815 215.815 0 0 0 1388.675 719.727 A 188.137 188.137 0 0 0 1405.929 718.952 A 154.659 154.659 0 0 0 1443.362 710.938 A 146.266 146.266 0 0 0 1451.721 707.7 A 124.404 124.404 0 0 0 1486.331 686.035 A 109.608 109.608 0 0 0 1514.163 647.461 A 113.223 113.223 0 0 0 1520.486 628.406 A 132.884 132.884 0 0 0 1523.929 597.657 A 167.946 167.946 0 0 0 1523.789 590.769 A 144.668 144.668 0 0 0 1512.21 538.819 Q 1500.491 511.719 1481.204 488.77 A 308.994 308.994 0 0 0 1437.503 446.289 A 616.97 616.97 0 0 0 1387.454 410.157 A 1863.207 1863.207 0 0 0 1374.713 401.978 A 1678.06 1678.06 0 0 0 1337.405 378.907 A 1021.001 1021.001 0 0 1 1314.273 364.624 A 759.239 759.239 0 0 1 1293.704 351.074 A 275.381 275.381 0 0 1 1286.982 346.335 Q 1272.3 335.641 1262.698 325.44 A 62.121 62.121 0 0 1 1259.168 321.361 Q 1255.878 317.191 1253.909 313.05 A 28.385 28.385 0 0 1 1250.979 300.782 Q 1250.979 287.11 1260.989 279.541 A 33.42 33.42 0 0 1 1261.765 278.972 Q 1267.644 274.788 1275.379 273.105 A 52.869 52.869 0 0 1 1286.624 271.973 Q 1310.55 271.973 1331.058 281.739 A 302.174 302.174 0 0 1 1337.389 284.844 A 268.594 268.594 0 0 1 1368.899 303.467 Q 1386.233 315.43 1400.638 325.196 A 78.688 78.688 0 0 0 1407.277 329.256 Q 1417.804 334.961 1426.761 334.961 Q 1432.529 334.961 1439.453 332.543 A 69.217 69.217 0 0 0 1447.024 329.346 A 96.661 96.661 0 0 0 1468.265 315.186 A 120.76 120.76 0 0 0 1473.105 310.715 A 102.92 102.92 0 0 0 1484.866 297.119 Q 1491.702 287.598 1491.702 279.785 A 30.294 30.294 0 0 0 1488.384 266.396 Q 1483.856 257.14 1473.147 247.559 Q 1462.71 238.22 1449.029 229.886 A 237.716 237.716 0 0 0 1425.784 217.53 A 309.173 309.173 0 0 0 1405.286 208.875 A 367.551 367.551 0 0 0 1362.308 195.557 A 315.114 315.114 0 0 0 1348.304 192.438 Z M 1588.044 33.704 A 71.453 71.453 0 0 0 1586.917 46.875 Q 1586.917 48.859 1588.851 59.223 A 798.652 798.652 0 0 0 1589.847 64.453 Q 1592.044 75.806 1595.477 93.476 A 91893.553 91893.553 0 0 0 1597.903 105.957 A 19961.286 19961.286 0 0 1 1601.298 123.462 Q 1605.243 143.845 1610.11 169.19 A 4116.671 4116.671 0 0 1 1617.374 208.069 A 5507.73 5507.73 0 0 1 1625.003 250.977 A 20.572 20.572 0 0 1 1625.56 252.965 A 16.5 16.5 0 0 1 1625.979 256.592 L 1625.979 261.719 A 39.499 39.499 0 0 1 1625.814 265.414 Q 1625.014 273.915 1620.364 278.565 A 24.653 24.653 0 0 1 1619.391 279.486 Q 1613.928 284.385 1604.983 286.621 A 1185.711 1185.711 0 0 0 1564.212 294.739 A 863.948 863.948 0 0 0 1527.835 303.467 A 891.805 891.805 0 0 0 1527.091 303.664 Q 1504.066 309.77 1487.3 315.542 A 285.876 285.876 0 0 0 1473.147 320.801 A 45.582 45.582 0 0 0 1466.611 324.338 A 33.766 33.766 0 0 0 1459.231 330.811 Q 1454.104 336.914 1451.419 343.994 A 71.234 71.234 0 0 0 1451.09 344.879 A 64.468 64.468 0 0 0 1447.757 358.155 A 131.83 131.83 0 0 0 1447.501 360.114 Q 1447.147 363.002 1446.967 365.585 A 72.373 72.373 0 0 0 1446.78 370.606 A 79.717 79.717 0 0 0 1446.876 374.566 Q 1447.499 387.082 1452.151 395.752 A 23.987 23.987 0 0 0 1453.381 397.799 Q 1458.736 405.762 1468.753 405.762 A 82.545 82.545 0 0 0 1469.864 405.754 Q 1473.783 405.702 1478.124 405.28 A 136.05 136.05 0 0 0 1487.308 404.053 A 106.948 106.948 0 0 0 1490.381 403.493 Q 1494.989 402.586 1500.143 401.179 A 201.07 201.07 0 0 0 1510.745 397.949 A 649.835 649.835 0 0 1 1528.804 392.227 A 772.495 772.495 0 0 1 1561.038 383.301 A 1989.627 1989.627 0 0 1 1588.748 376.465 A 2357.892 2357.892 0 0 1 1618.167 369.629 A 9.785 9.785 0 0 0 1618.819 369.607 Q 1619.463 369.564 1620.189 369.438 A 19.272 19.272 0 0 0 1621.585 369.141 Q 1622.745 368.851 1623.732 368.733 A 10.76 10.76 0 0 1 1625.003 368.653 A 28.092 28.092 0 0 1 1626.459 368.69 Q 1642.766 369.536 1646.976 389.649 Q 1655.276 447.754 1661.624 506.104 A 2021.234 2021.234 0 0 1 1670.901 622.071 Q 1671.878 640.137 1680.667 648.926 A 25.923 25.923 0 0 0 1688.647 654.289 Q 1692.776 656.107 1697.977 656.961 A 62.115 62.115 0 0 0 1708.011 657.715 A 210.861 210.861 0 0 0 1717.504 657.51 Q 1724.131 657.211 1729.85 656.475 A 96.434 96.434 0 0 0 1740.481 654.541 A 54.356 54.356 0 0 0 1750.233 651.198 A 39.073 39.073 0 0 0 1761.233 643.799 A 39.18 39.18 0 0 0 1767.947 635.132 A 48.343 48.343 0 0 0 1772.464 624.268 Q 1774.6 616.791 1775.401 607.121 A 150.48 150.48 0 0 0 1775.882 594.727 A 54.166 54.166 0 0 0 1775.84 592.739 Q 1775.58 585.73 1773.685 569.092 Q 1771.487 549.805 1767.825 520.752 A 4077.757 4077.757 0 0 0 1766.766 512.422 Q 1765.134 499.687 1763.242 485.519 A 6950.645 6950.645 0 0 0 1759.036 454.59 A 326948.89 326948.89 0 0 1 1753.726 416.138 A 400414.993 400414.993 0 0 1 1748.05 375 A 11.005 11.005 0 0 0 1748.004 374.03 Q 1747.951 373.44 1747.84 372.762 A 26.262 26.262 0 0 0 1747.562 371.338 A 26.622 26.622 0 0 1 1747.299 370.006 Q 1747.193 369.377 1747.136 368.823 A 11.415 11.415 0 0 1 1747.073 367.676 A 29.68 29.68 0 0 1 1747.234 364.536 Q 1748.527 352.385 1760.217 347.858 A 38.597 38.597 0 0 1 1769.046 345.703 Q 1812.015 341.309 1855.228 338.623 A 1381.318 1381.318 0 0 1 1940.921 335.938 A 36.893 36.893 0 0 0 1944.673 335.751 A 29.735 29.735 0 0 0 1956.546 332.032 A 37.78 37.78 0 0 0 1968.02 322.022 A 45.856 45.856 0 0 0 1969.957 319.268 A 50.494 50.494 0 0 0 1975.345 308.106 A 53.475 53.475 0 0 0 1976.703 303.51 A 43.994 43.994 0 0 0 1978.03 292.969 A 109.038 109.038 0 0 0 1976.81 276.612 A 49.075 49.075 0 0 0 1976.418 274.375 A 42.461 42.461 0 0 0 1971.927 261.963 A 30.156 30.156 0 0 0 1961.917 251.221 Q 1955.569 247.071 1944.827 247.071 A 326.266 326.266 0 0 0 1940.9 247.095 Q 1928.649 247.242 1913.333 248.291 A 1958.694 1958.694 0 0 0 1895.022 249.634 A 2293.88 2293.88 0 0 0 1875.735 251.221 Q 1855.96 252.93 1836.185 254.883 A 33904.124 33904.124 0 0 0 1817.081 256.775 A 27249.366 27249.366 0 0 0 1799.319 258.545 A 21314.114 21314.114 0 0 1 1789.091 259.566 Q 1784.204 260.052 1779.769 260.491 A 11484.084 11484.084 0 0 1 1769.778 261.475 A 557.585 557.585 0 0 1 1767.853 261.66 Q 1759.875 262.415 1755.084 262.619 A 74.389 74.389 0 0 1 1751.956 262.696 Q 1736.629 262.696 1731.319 249.816 A 36.516 36.516 0 0 1 1729.007 240.723 A 7433.459 7433.459 0 0 1 1714.114 143.555 A 6023.047 6023.047 0 0 1 1712.363 131.516 A 5469.636 5469.636 0 0 1 1701.175 49.805 A 189.763 189.763 0 0 0 1699.856 42.697 Q 1698.835 37.744 1697.646 33.497 A 88.225 88.225 0 0 0 1695.071 25.635 Q 1691.409 16.114 1685.306 10.254 A 32.41 32.41 0 0 0 1670.657 2.198 Q 1665.317 0.824 1658.546 0.309 A 114.172 114.172 0 0 0 1649.905 0 Q 1616.214 0 1601.565 10.498 A 30.81 30.81 0 0 0 1592.275 21.198 Q 1589.374 26.626 1588.044 33.704 Z M 188.968 666.992 A 528.991 528.991 0 0 0 188.891 658.325 Q 188.663 644.409 187.747 625 A 3265.11 3265.11 0 0 0 186.343 597.779 A 4335.833 4335.833 0 0 0 184.573 567.871 A 8826.26 8826.26 0 0 0 182.498 535.645 A 10537.732 10537.732 0 0 0 180.179 501.465 A 4677.054 4677.054 0 0 0 174.808 431.641 A 38183.907 38183.907 0 0 1 169.868 372.654 A 34565.307 34565.307 0 0 1 169.192 364.502 A 7073.487 7073.487 0 0 0 166.568 333.557 A 5186.199 5186.199 0 0 0 164.065 305.664 A 468.718 468.718 0 0 0 161.929 288.117 Q 159.339 269.918 155.835 257.96 A 92.282 92.282 0 0 0 153.323 250.489 A 37.23 37.23 0 0 0 149.072 242.39 Q 142.337 232.91 130.862 232.91 A 39.904 39.904 0 0 0 124.164 233.429 Q 115.054 234.986 111.575 241.211 Q 106.937 249.512 106.204 261.719 Q 105.472 273.926 105.716 288.33 Q 105.96 302.735 101.321 314.942 A 39.791 39.791 0 0 1 90.491 330.471 A 53.07 53.07 0 0 1 83.987 335.449 A 41.463 41.463 0 0 1 73.644 340.175 Q 63.382 343.389 48.363 343.714 A 159.036 159.036 0 0 1 44.925 343.75 A 39.624 39.624 0 0 1 15.712 331.125 A 55.108 55.108 0 0 1 13.187 328.369 Q 2.668 316.098 0.542 294.968 A 112.731 112.731 0 0 1 0.003 283.692 A 124.167 124.167 0 0 1 24.173 209.229 A 175.737 175.737 0 0 1 59.286 173.386 A 237.908 237.908 0 0 1 92.288 152.1 A 331.146 331.146 0 0 1 139.923 131.331 Q 163.401 123.105 190.445 116.951 A 559.947 559.947 0 0 1 198.245 115.235 A 590.637 590.637 0 0 1 272.334 104.574 A 771.809 771.809 0 0 1 335.94 102.051 Q 390.14 102.051 436.038 114.014 A 319.546 319.546 0 0 1 478.824 128.296 A 243.08 243.08 0 0 1 515.384 147.217 A 188.568 188.568 0 0 1 547.659 172.785 A 154.708 154.708 0 0 1 567.874 197.51 A 113.077 113.077 0 0 1 586.917 260.742 A 132.698 132.698 0 0 1 569.101 326.742 A 161.821 161.821 0 0 1 564.456 334.473 A 225.4 225.4 0 0 1 530.314 375.637 A 290.604 290.604 0 0 1 502.688 398.926 A 380.446 380.446 0 0 1 451.106 431.048 A 485.156 485.156 0 0 1 410.159 449.951 A 612.825 612.825 0 0 1 318.515 478.975 A 694.744 694.744 0 0 1 295.901 483.887 A 24.863 24.863 0 0 0 288.077 486.484 Q 281.128 490.306 279.391 498.745 A 30.463 30.463 0 0 0 278.812 504.883 Q 278.812 513.18 279.601 524.297 A 503.98 503.98 0 0 0 280.52 535.401 A 4716.649 4716.649 0 0 1 283.084 563.828 A 5379.697 5379.697 0 0 1 283.938 573.731 Q 285.647 593.75 287.356 613.282 Q 288.825 630.066 289.032 643.605 A 284.898 284.898 0 0 1 289.065 647.949 A 92.921 92.921 0 0 1 288.116 661.735 Q 287.052 668.807 284.795 674.41 A 34.233 34.233 0 0 1 276.37 687.012 Q 263.675 698.731 238.772 698.731 Q 215.335 698.731 202.151 690.674 A 28.276 28.276 0 0 1 193.677 682.966 Q 188.968 676.331 188.968 666.992 Z M 1923.343 443.848 L 1924.319 434.082 Q 1926.761 416.504 1933.841 408.692 A 21.738 21.738 0 0 1 1942.935 402.832 Q 1946.493 401.581 1950.878 401.131 A 50.821 50.821 0 0 1 1956.058 400.879 L 1963.382 400.879 Q 1981.302 400.879 1989.901 386.339 A 41.088 41.088 0 0 0 1992.19 381.836 A 261.143 261.143 0 0 1 2030.765 320.313 A 255.974 255.974 0 0 1 2083.499 272.705 A 252.437 252.437 0 0 1 2146.243 241.944 A 216.964 216.964 0 0 1 2214.358 230.957 A 220.393 220.393 0 0 1 2263.903 236.381 A 196.359 196.359 0 0 1 2281.985 241.455 Q 2313.479 251.953 2336.917 270.508 A 140.686 140.686 0 0 1 2371.177 309.352 A 134.928 134.928 0 0 1 2373.782 313.965 Q 2387.21 338.867 2387.21 367.676 A 89.104 89.104 0 0 1 2383.845 392.48 A 79.348 79.348 0 0 1 2379.397 404.297 Q 2371.585 420.899 2356.937 433.35 Q 2342.288 445.801 2321.536 453.614 A 161.027 161.027 0 0 1 2296.413 460.703 A 210.995 210.995 0 0 1 2274.417 463.867 L 2104.983 480.957 A 31.927 31.927 0 0 0 2098.174 481.644 Q 2092.929 482.788 2089.114 485.84 A 15.703 15.703 0 0 0 2083.084 497.249 A 21.147 21.147 0 0 0 2083.011 499.024 A 35.127 35.127 0 0 0 2087.511 516.018 A 48.804 48.804 0 0 0 2092.532 523.438 A 78.369 78.369 0 0 0 2105.252 535.772 A 105.214 105.214 0 0 0 2117.923 544.19 A 135.525 135.525 0 0 0 2138.489 553.626 A 173.202 173.202 0 0 0 2154.544 558.594 Q 2175.296 563.965 2197.269 563.965 A 231.43 231.43 0 0 0 2234.257 560.9 A 260.21 260.21 0 0 0 2240.481 559.815 A 283.687 283.687 0 0 0 2284.427 547.852 A 315.106 315.106 0 0 0 2326.663 529.053 A 266.064 266.064 0 0 0 2365.237 503.907 A 63.06 63.06 0 0 1 2374.477 497.21 Q 2383.884 491.699 2393.069 491.699 A 26.479 26.479 0 0 1 2407.229 495.606 Q 2411.544 498.261 2416.535 502.946 A 111.359 111.359 0 0 1 2421.39 507.813 A 241.327 241.327 0 0 1 2425.562 514.426 Q 2429.269 520.535 2431.406 525.075 A 62.165 62.165 0 0 1 2431.888 526.123 Q 2435.062 533.203 2435.062 540.039 A 30.896 30.896 0 0 1 2430.427 556.055 Q 2427.723 560.591 2423.442 564.97 A 65.716 65.716 0 0 1 2420.413 567.871 Q 2396.976 587.403 2369.632 602.783 Q 2342.288 618.164 2312.503 628.907 A 372.028 372.028 0 0 1 2250.979 645.264 A 360.967 360.967 0 0 1 2187.991 650.879 A 277.219 277.219 0 0 1 2133.941 645.764 A 243.563 243.563 0 0 1 2113.772 640.869 A 222.9 222.9 0 0 1 2069.681 623.067 A 195.317 195.317 0 0 1 2052.005 612.305 A 180.607 180.607 0 0 1 2006.351 567.627 A 167.841 167.841 0 0 1 1979.983 508.789 Q 1975.589 495.117 1971.927 490.967 A 10.987 10.987 0 0 0 1967.474 487.988 Q 1964.374 486.817 1959.964 486.817 A 59.571 59.571 0 0 1 1949.121 485.893 Q 1943.115 484.779 1938.375 482.325 A 29.696 29.696 0 0 1 1932.132 478.028 A 28.342 28.342 0 0 1 1923.627 463.56 Q 1922.445 458.913 1922.371 453.379 A 55.558 55.558 0 0 1 1922.366 452.637 A 74.884 74.884 0 0 1 1922.413 449.88 Q 1922.58 445.374 1923.343 443.848 Z M 1001.468 348.633 L 1003.421 387.696 Q 1005.09 447.376 1018.353 479.589 A 98.35 98.35 0 0 0 1023.196 489.746 Q 1035.314 511.658 1052.511 518.672 A 45.409 45.409 0 0 0 1069.827 521.973 Q 1079.911 521.973 1087.87 520.084 A 57.174 57.174 0 0 0 1088.138 520.02 A 131.499 131.499 0 0 0 1099.673 516.678 A 114.905 114.905 0 0 0 1103.274 515.381 A 239.505 239.505 0 0 1 1111.838 512.31 A 196.532 196.532 0 0 1 1116.702 510.742 Q 1123.05 508.789 1129.397 508.789 A 24.24 24.24 0 0 1 1145.448 514.87 A 34.969 34.969 0 0 1 1149.173 518.555 A 34.307 34.307 0 0 1 1157.716 541.566 A 43.463 43.463 0 0 1 1157.718 541.992 Q 1157.718 555.222 1147.888 568.452 A 70.101 70.101 0 0 1 1147.22 569.336 A 97.409 97.409 0 0 1 1132.429 584.625 A 125.826 125.826 0 0 1 1119.632 593.994 A 155.023 155.023 0 0 1 1091.843 608.016 A 183.062 183.062 0 0 1 1081.058 611.817 A 142.545 142.545 0 0 1 1037.601 618.653 A 85.071 85.071 0 0 1 979.935 596.231 A 118.503 118.503 0 0 1 970.706 587.158 A 136.97 136.97 0 0 1 949.354 555.328 Q 941.672 539.842 936.051 520.69 A 304.968 304.968 0 0 1 929.69 494.629 Q 927.765 488.212 924.997 486.012 A 4.916 4.916 0 0 0 921.878 484.864 A 11.264 11.264 0 0 0 914.514 487.633 A 18.103 18.103 0 0 0 911.624 490.723 A 429.672 429.672 0 0 1 868.112 538.287 Q 839.358 565.11 808.597 582.276 A 255.458 255.458 0 0 1 757.649 604.18 A 197.301 197.301 0 0 1 700.687 612.793 A 145.892 145.892 0 0 1 675.606 610.726 A 115.287 115.287 0 0 1 655.765 605.469 A 101.04 101.04 0 0 1 633.124 593.93 A 88.114 88.114 0 0 1 621.829 584.717 A 89.88 89.88 0 0 1 601.82 555.567 A 104.466 104.466 0 0 1 600.345 552.002 A 108.979 108.979 0 0 1 593.671 524.69 A 137.38 137.38 0 0 1 592.776 508.789 A 171.252 171.252 0 0 1 598.027 467.576 A 224.118 224.118 0 0 1 607.669 437.989 A 348.88 348.88 0 0 1 635.913 382.874 A 408.046 408.046 0 0 1 647.952 364.746 A 489.586 489.586 0 0 1 702.641 300.001 A 538.404 538.404 0 0 1 706.79 295.899 Q 740.237 263.184 777.103 238.282 A 385.932 385.932 0 0 1 833.087 206.696 A 341.112 341.112 0 0 1 852.054 198.731 A 229.64 229.64 0 0 1 890.421 187.519 A 179.147 179.147 0 0 1 924.808 184.082 A 162.59 162.59 0 0 1 976.565 192.383 Q 1001.468 200.684 1020.511 215.332 A 114.585 114.585 0 0 1 1051.028 250.489 A 91.05 91.05 0 0 1 1062.491 294.298 A 107.175 107.175 0 0 1 1062.503 295.899 A 44.63 44.63 0 0 1 1057.864 315.674 A 54.278 54.278 0 0 1 1045.413 332.276 Q 1037.601 339.356 1027.591 343.506 A 53.674 53.674 0 0 1 1006.839 347.657 A 6.634 6.634 0 0 0 1006.031 347.703 Q 1005.603 347.756 1005.234 347.868 A 3.943 3.943 0 0 0 1005.13 347.901 A 4.535 4.535 0 0 1 1004.336 348.084 Q 1003.909 348.145 1003.421 348.145 A 4.703 4.703 0 0 1 1002.322 348.54 A 3.988 3.988 0 0 1 1001.468 348.633 Z M 924.808 328.858 A 47.171 47.171 0 0 0 923.324 330.466 Q 916.602 338.09 908.694 353.028 A 775.904 775.904 0 0 1 882 397.538 Q 865.375 423.159 848.75 443.545 A 327.549 327.549 0 0 1 813.968 480.469 A 241.739 241.739 0 0 1 788.118 500.86 Q 773.849 510.505 760.306 515.939 A 90.419 90.419 0 0 1 726.565 522.949 A 43.901 43.901 0 0 1 717.762 522.11 A 29.909 29.909 0 0 1 701.907 513.672 A 28.649 28.649 0 0 1 699.029 510.21 Q 692.874 501.497 692.874 487.793 Q 692.874 469.239 703.616 445.801 Q 714.358 422.364 731.937 398.438 A 370.413 370.413 0 0 1 738.727 389.485 A 415.36 415.36 0 0 1 772.22 351.807 Q 794.925 329.102 818.606 311.28 Q 842.288 293.457 865.237 282.715 A 149.351 149.351 0 0 1 873.17 279.27 Q 891.448 271.973 906.741 271.973 A 50.645 50.645 0 0 1 917.452 273.047 A 34.685 34.685 0 0 1 934.085 281.494 A 138.353 138.353 0 0 1 941.019 288.415 A 164.566 164.566 0 0 1 953.616 303.711 A 23.688 23.688 0 0 1 954.404 304.976 Q 956.546 308.672 956.546 312.012 Q 956.546 316.376 949.454 318.161 A 33.646 33.646 0 0 1 945.804 318.848 A 58.952 58.952 0 0 0 943.022 319.413 Q 938.178 320.521 934.214 322.339 A 30.773 30.773 0 0 0 924.808 328.858 Z M 485.843 274.903 A 40.572 40.572 0 0 0 480.311 254.723 Q 477.2 249.208 472.339 243.875 A 74.666 74.666 0 0 0 471.683 243.164 A 106.641 106.641 0 0 0 455.674 229.303 Q 447.455 223.437 437.389 218.219 A 186.49 186.49 0 0 0 433.597 216.309 A 213.589 213.589 0 0 0 405.164 204.952 A 284.932 284.932 0 0 0 378.177 197.754 A 306.579 306.579 0 0 0 321.167 191.039 A 345.359 345.359 0 0 0 312.015 190.918 A 396.769 396.769 0 0 0 300.221 191.083 Q 294.872 191.242 290.234 191.557 A 178.115 178.115 0 0 0 283.45 192.139 A 101.074 101.074 0 0 0 276.732 193.069 Q 269.839 194.275 265.14 196.289 Q 260.148 198.429 257.369 201.479 A 13.796 13.796 0 0 0 255.618 203.858 A 18.436 18.436 0 0 0 253.702 208.75 Q 252.933 211.901 252.933 215.821 Q 252.933 220.555 254.31 237.456 A 1546.907 1546.907 0 0 0 254.397 238.526 Q 255.862 256.348 258.304 279.785 A 81148.889 81148.889 0 0 0 262.103 316.178 A 92712.847 92712.847 0 0 0 263.431 328.858 A 1472.589 1472.589 0 0 0 266.133 352.85 Q 267.514 364.219 268.953 374.348 A 894.173 894.173 0 0 0 269.046 375 A 167.343 167.343 0 0 0 269.745 381.132 Q 270.963 390.195 272.783 394.192 A 12.295 12.295 0 0 0 273.196 395.02 Q 275.536 399.275 280.287 399.822 A 12.709 12.709 0 0 0 281.741 399.903 A 119.218 119.218 0 0 0 297.202 398.828 Q 307.742 397.446 319.827 394.287 A 316.648 316.648 0 0 0 351.342 384.197 A 370.265 370.265 0 0 0 364.017 379.151 Q 386.722 369.629 408.45 357.178 A 321.839 321.839 0 0 0 435.076 340.205 A 269.273 269.273 0 0 0 447.513 330.811 A 180.841 180.841 0 0 0 462.261 317.657 Q 469.768 310.143 475.345 302.49 A 66.691 66.691 0 0 0 481.322 292.732 Q 484.147 286.996 485.207 281.465 A 34.815 34.815 0 0 0 485.843 274.903 Z M 2256.351 377.93 Q 2263.675 376.465 2269.046 370.85 A 19.185 19.185 0 0 0 2274.403 357.77 A 25.041 25.041 0 0 0 2274.417 356.934 A 19.833 19.833 0 0 0 2271.073 345.983 A 26.476 26.476 0 0 0 2269.046 343.262 A 43.016 43.016 0 0 0 2262.698 337.219 Q 2259.036 334.351 2254.397 331.787 A 76.553 76.553 0 0 0 2243.033 326.715 A 99.078 99.078 0 0 0 2232.913 323.731 A 107.895 107.895 0 0 0 2212.136 320.905 A 123.865 123.865 0 0 0 2207.034 320.801 A 148.496 148.496 0 0 0 2173.858 324.669 A 171.092 171.092 0 0 0 2166.019 326.66 A 184.253 184.253 0 0 0 2140.143 335.928 A 157.142 157.142 0 0 0 2127.933 342.041 A 135.65 135.65 0 0 0 2113.416 351.315 Q 2106.322 356.548 2100.826 362.272 A 83.565 83.565 0 0 0 2100.101 363.037 A 51.547 51.547 0 0 0 2094.436 370.185 Q 2089.358 378.021 2089.358 385.742 A 13.039 13.039 0 0 0 2090.2 390.623 Q 2092.482 396.307 2100.96 396.903 A 29.554 29.554 0 0 0 2103.03 396.973 A 108.176 108.176 0 0 0 2107.822 396.851 Q 2115.11 396.523 2127.014 395.317 A 749.233 749.233 0 0 0 2129.886 395.02 Q 2148.44 393.067 2170.901 390.381 Q 2193.362 387.696 2216.312 384.278 Q 2239.261 380.86 2256.351 377.93 Z" vector-effect="non-scaling-stroke"/></g></svg>